<?xml version="1.0" encoding="UTF-8" standalone="no"?>
<svg
   xmlns:dc="http://purl.org/dc/elements/1.1/"
   xmlns:cc="http://creativecommons.org/ns#"
   xmlns:rdf="http://www.w3.org/1999/02/22-rdf-syntax-ns#"
   xmlns:svg="http://www.w3.org/2000/svg"
   xmlns="http://www.w3.org/2000/svg"
   xmlns:sodipodi="http://sodipodi.sourceforge.net/DTD/sodipodi-0.dtd"
   xmlns:inkscape="http://www.inkscape.org/namespaces/inkscape"
   width="1920"
   height="1080"
   viewBox="0 0 1920 1080"
   version="1.1"
   id="svg952"
   sodipodi:docname="audio_preview_overlay.svg"
   inkscape:version="0.92.3 (2405546, 2018-03-11)"
   inkscape:export-filename="/home/danimo/homeCloud/Chaosradio/Grafik/audio_preview_overlay.png"
   inkscape:export-xdpi="96"
   inkscape:export-ydpi="96">
  <metadata
     id="metadata958">
    <rdf:RDF>
      <cc:Work
         rdf:about="">
        <dc:format>image/svg+xml</dc:format>
        <dc:type
           rdf:resource="http://purl.org/dc/dcmitype/StillImage" />
        <dc:title>Header</dc:title>
      </cc:Work>
    </rdf:RDF>
  </metadata>
  <defs
     id="defs956" />
  <sodipodi:namedview
     pagecolor="#ffffff"
     bordercolor="#666666"
     borderopacity="1"
     objecttolerance="10"
     gridtolerance="10"
     guidetolerance="10"
     inkscape:pageopacity="0"
     inkscape:pageshadow="2"
     inkscape:window-width="956"
     inkscape:window-height="1041"
     id="namedview954"
     showgrid="true"
     inkscape:zoom="1.979899"
     inkscape:cx="677.30472"
     inkscape:cy="901.21638"
     inkscape:window-x="960"
     inkscape:window-y="18"
     inkscape:window-maximized="0"
     inkscape:current-layer="svg952"
     showguides="true"
     inkscape:guide-bbox="true">
    <inkscape:grid
       type="xygrid"
       id="grid1132" />
    <sodipodi:guide
       position="680,1120"
       orientation="1,0"
       id="guide1134"
       inkscape:locked="false" />
  </sodipodi:namedview>
  <!-- Generator: Sketch 52.2 (67145) - http://www.bohemiancoding.com/sketch -->
  <title
     id="title815">Header</title>
  <desc
     id="desc817">Created with Sketch.</desc>
  <g
     style="fill:#ffcc00;fill-rule:evenodd;stroke:none;stroke-width:1"
     id="Background"
     transform="matrix(1.9314285,0,0,3.8064285,-5.7142824,-2.2857134)">
    <polygon
       points="1000,288 0,288 0,0 1000,0 "
       id="Path" />
  </g>
  <g
     style="fill:#000000;fill-rule:evenodd;stroke:none;stroke-width:1"
     transform="matrix(1.9314285,0,0,1.9314285,71.542858,36.342857)"
     id="Logo">
    <g
       id="Chaosknoten">
      <path
         inkscape:connector-curvature="0"
         id="path821"
         d="m 237.21955,146.57229 0.99252,2.52817 c 2.36258,6.02068 3.23305,10.25432 3.51526,17.11343 0.32417,7.83632 -0.50245,14.83183 -3.76697,31.89662 -2.8288,14.78986 -2.79448,14.45172 -1.95356,19.05164 1.45254,7.94363 13.71498,22.74876 13.71498,22.74876 -0.737,5.67538 1.87395,9.71301 -3.97291,6.90346 -4.07588,-1.95872 -16.1095,-19.08312 -16.72112,-29.12665 -0.45526,-7.48435 0.2927,-13.12349 3.5105,-26.46971 2.87314,-11.91926 3.25784,-14.30435 3.4409,-21.36567 l 0.15874,-6.13943 -0.88954,-1.6349 c -0.48863,-0.89852 -0.97392,-1.62439 -1.07832,-1.61295 -0.32273,0.0348 -4.24034,4.68482 -6.62104,7.85779 -5.19043,6.9192 -8.1365,13.74301 -8.6728,20.09229 l -0.20737,2.45567 -1.67564,0.34864 c -3.37369,0.70012 -3.45425,0.67723 -3.93001,-1.12316 -0.63546,-2.40655 -0.33513,-8.41674 0.55203,-11.05984 1.20513,-3.58408 3.90808,-8.60417 7.77135,-14.43313 4.28992,-6.47041 7.08631,-11.57969 8.11553,-14.82897 0.84282,-2.65932 0.94436,-2.72084 4.94301,-3.00461 z" />
      <path
         inkscape:connector-curvature="0"
         id="path823"
         d="m 227.09135,199.55272 v 3.03896 c 0,3.59266 0.91957,3.09475 -7.38998,4.00424 -5.84352,0.6386 -6.41272,0.66436 -9.23151,0.41397 l -1.40105,-0.12495 0.17161,-1.28483 c 0.26458,-1.97113 1.5312,-3.60983 3.55532,-4.60088 1.57028,-0.76832 2.29965,-0.89042 6.82555,-1.1408 2.78637,-0.15452 5.60755,-0.28615 6.26875,-0.29331 z" />
      <path
         inkscape:connector-curvature="0"
         id="path825"
         d="m 248.73308,136.32798 0.0848,0.0735 c 0.42475,1.33443 5.77202,11.31452 6.97286,13.01285 2.59903,3.67564 6.04851,6.29538 9.43649,7.16672 0.79039,0.20317 1.98026,0.57803 2.64432,0.83366 1.74905,0.67246 4.15025,0.57374 8.18275,-0.33718 6.03135,-1.3621 7.95154,-0.97483 9.33448,1.88241 1.14601,2.3684 0.91576,2.78714 -2.08609,3.7944 -5.26432,1.767 -12.20047,1.84331 -19.15282,0.2108 -2.14091,-0.50268 -2.92415,-0.57517 -3.20445,-0.29521 -0.41951,0.41969 -0.44239,3.1825 -0.0629,7.71184 0.21309,2.54009 0.14015,3.64703 -0.44096,6.67645 -1.76478,9.20843 -5.21379,15.94735 -10.8714,21.24358 -2.23148,2.08893 -3.04332,2.63977 -4.50921,3.06233 -0.98393,0.28329 -2.61428,0.93 -3.62395,1.43744 l -1.8363,0.92142 -0.20498,-0.81793 c -0.26553,-1.05638 0.0748,-3.15675 0.70934,-4.38435 0.75941,-1.4694 2.90651,-3.66658 5.57085,-5.70114 2.74586,-2.09751 5.12941,-4.54412 5.92457,-6.08267 1.7133,-3.31367 2.87313,-14.27479 2.11421,-19.97164 -1.03399,-7.76049 -5.04837,-16.39947 -10.28266,-22.12875 -0.88001,-0.96434 -1.60079,-1.89577 -1.60079,-2.06984 0,-0.17361 1.53739,-1.7403 3.41706,-3.48107 1.13219,-0.93047 2.10182,-2.19527 3.48476,-2.75757 z" />
      <path
         inkscape:connector-curvature="0"
         id="path827"
         d="m 253.09689,111.08778 0.27745,0.0701 c 0.98917,0.62811 1.71282,1.56526 2.10802,2.66266 0.42856,1.70882 -2.03365,9.93956 -4.38336,14.65251 -4.53925,9.10399 -12.15804,15.29922 -21.60407,17.56699 -2.62859,0.63001 -6.66252,0.77738 -8.24711,0.30046 -0.48195,-0.14546 -1.38294,-0.57756 -2.00218,-0.961 -0.92387,-0.57088 -1.12599,-0.88756 -1.12599,-1.76605 v -1.07021 l 2.16283,-0.21176 c 5.40305,-0.52938 9.76591,-2.31451 14.0625,-5.75408 4.58454,-3.66896 8.55506,-8.95852 15.01593,-20.00215 2.07941,-3.55403 3.39084,-5.48032 3.73598,-5.48748 z" />
      <path
         inkscape:connector-curvature="0"
         id="path829"
         d="m 57.007975,0 c 0.336081,0.093 0.727461,0.07201538 1.007767,0.279 0.609714,0.45069231 0.704102,1.5080308 0.718404,2.1418615 0.03957,1.7846462 -0.511034,4.142077 -1.443481,5.6801539 -0.158269,0.2976 -3.919996,4.6647846 -8.377245,9.7091996 -5.088414,5.866154 -10.484784,11.536293 -14.648856,18.126416 4.859117,-0.227016 9.719187,-0.439246 14.57878,-0.651 28.879636,-1.253354 60.079896,-0.2232 77.619056,2.562984 3.95575,0.629062 4.68226,1.184677 6.58147,5.036308 1.91924,3.894077 3.01949,8.319446 3.30552,13.299 0.31177,5.417846 0.18449,6.699815 -0.68837,6.934462 -1.11694,0.299507 -4.68893,0.220815 -5.3201,-0.117324 -0.91242,-0.488846 -1.56742,-2.563938 -2.09943,-6.65403 -1.1279,-8.676185 -2.66101,-10.715508 -9.21531,-12.265031 -7.32133,-1.730754 -18.45587,-2.376508 -40.611016,-2.356477 -21.532087,0.01908 -38.162631,0.681523 -54.849427,2.186215 -4.123074,0.371047 -5.301504,0.59377 -6.581474,1.242385 -3.315049,1.680677 -5.792039,5.607185 -7.309411,11.589231 -1.1626984,4.583707 -1.397717,7.592615 -1.7419024,22.305215 -0.4953028,21.152491 0.3089088,31.395851 3.3274434,42.352201 1.823897,6.62064 3.339362,8.86791 7.275565,10.78943 4.377638,2.13518 2.663862,2.05935 46.101302,2.046 37.64778,-0.0114 50.07993,-0.24705 54.96622,-1.04255 4.54639,-0.74019 7.15257,-5.45839 8.64849,-15.65739 0.69791,-4.75826 0.78181,-5.04584 1.70901,-5.87426 1.88063,-1.68115 4.34475,-1.47846 5.39399,0.44306 0.94246,1.72599 0.7451,7.30885 -0.46193,13.07628 -1.55551,7.43666 -2.98183,12.47011 -3.81131,13.45638 -1.62034,1.92677 -6.39651,3.07711 -13.57482,3.27074 -2.20336,0.0596 -27.364176,0.0353 -55.913928,-0.0548 L 9.6843862,141.69051 8.6403889,140.94555 C 7.3280032,140.00935 5.3239097,135.93643 4.4329366,132.39385 2.8941132,126.28017 2.0021867,119.58846 1.508314,110.43535 1.3223966,106.99721 0.87047449,99.568662 0.50340693,93.926185 -0.22453093,82.726123 -0.171616,75.715354 0.71792693,65.235923 2.0608221,49.420677 4.501583,39.934677 7.7813555,37.785185 8.3786745,37.541954 8.2032448,37.592031 9.2744147,37.448954 11.502086,37.151831 13.755976,37.026877 15.996995,36.884277 19.701517,36.647723 23.409376,36.4622 27.116281,36.2762 31.767552,29.258277 37.32219,22.869892 42.683759,16.391369 50.078502,7.4748154 52.870122,2.7055846 56.302919,0.14069231 Z" />
      <path
         inkscape:connector-curvature="0"
         id="path831"
         d="m 250.04213,101.45919 c 1.65276,0 1.65037,-0.1903 0.0667,4.63807 -3.57534,10.90246 -10.95292,19.92537 -21.493,26.28752 -2.37021,1.42982 -2.81879,1.56717 -10.05956,3.07759 -8.14747,1.6988 -8.42968,1.72837 -10.85042,1.12935 -2.08799,-0.51651 -3.3427,-1.19326 -4.85244,-2.61735 l -1.22992,-1.16036 0.74939,-0.6076 c 1.16127,-0.94049 3.66973,-1.57098 8.21707,-2.06364 2.29108,-0.24896 4.81383,-0.66245 5.6066,-0.92094 8.71619,-2.83149 14.1507,-6.31589 21.19553,-13.58992 3.4471,-3.55976 10.54294,-12.36566 11.06828,-13.73539 0.10678,-0.27757 0.6836,-0.43733 1.58173,-0.43733 z" />
      <path
         inkscape:connector-curvature="0"
         id="path833"
         d="m 95.419926,45.039661 c 1.39724,0 2.563276,0.03672 2.591402,0.08012 0.0286,0.04435 0.14206,3.615076 0.254087,7.934569 0.221194,8.597492 0.327977,9.131169 2.266285,11.339323 1.41297,1.610569 2.30204,2.015954 5.29721,2.418954 6.34503,0.853215 11.20462,0.992954 34.31605,0.987231 14.26368,-0.0029 26.04511,0.133538 28.35764,0.329077 10.84756,0.917122 19.52752,3.084738 27.08434,6.763246 3.66496,1.784169 4.07302,2.080338 6.68587,4.857461 4.9168,5.223739 9.67772,12.204939 12.40069,18.183646 l 1.24136,2.724662 -0.11632,-1.953 c -0.25838,-4.356692 -6.6711,-14.976339 -16.70825,-27.672508 -1.87014,-2.365061 -3.40038,-4.412492 -3.40038,-4.549846 0,-0.460708 1.41726,-1.246677 2.24912,-1.246677 1.46351,0 5.23763,2.548677 6.95331,4.695785 8.75242,10.953969 14.21982,19.875292 16.76879,27.3606 0.57015,1.674477 1.37674,3.402846 1.79196,3.840186 l 0.75511,0.79456 1.93878,-1.939177 -0.829,-2.871077 c -1.85107,-6.409846 -3.87041,-10.373077 -11.65463,-22.876569 -5.93934,-9.54037 -5.97653,-9.645293 -3.38179,-9.645293 1.12266,0 1.80769,0.293308 3.7255,1.5996 1.29284,0.879923 2.57853,1.781308 2.85836,2.003077 0.81946,0.651 7.23695,11.5382 9.46319,16.053708 1.12552,2.282077 2.5628,5.825615 3.19492,7.873523 1.67516,5.430723 1.68088,5.436446 3.5043,3.834462 1.16651,-1.024908 1.18654,-1.080231 0.99966,-2.821477 -0.43476,-4.061 -2.7673,-11.349339 -5.53366,-17.289893 -0.77084,-1.65683 -1.40248,-3.204923 -1.40248,-3.441 0,-0.236077 0.4176,-0.896615 0.92768,-1.467969 0.89383,-1.000107 0.96248,-1.021569 1.84249,-0.566108 1.48972,0.769754 4.04441,3.564047 5.13418,5.614339 0.55775,1.051138 1.84058,4.688154 2.84977,8.081938 1.00968,3.393785 1.95071,6.170908 2.09086,6.170908 0.14063,0 0.7327,-0.599015 1.31572,-1.330615 2.68913,-3.377569 3.664,-3.847339 5.00881,-2.415139 0.86952,0.925708 0.88477,2.136616 0.0558,4.546985 -0.8557,2.490015 -0.8228,3.179646 0.17543,3.634631 0.44906,0.2046 1.02588,0.372 1.28188,0.372 0.62926,0 0.58492,0.833661 -0.15875,2.996984 -2.20097,6.398882 -6.94616,12.045652 -14.43576,17.175432 -7.11492,4.87273 -16.34547,7.91883 -25.09932,8.28225 -4.34284,0.18028 -6.86893,-0.32431 -9.02557,-1.80134 -1.65753,-1.13555 -1.71712,-2.13137 -0.18878,-3.16152 1.66944,-1.12602 3.87566,-1.65159 8.48212,-2.02168 14.30562,-1.14891 25.13173,-6.34975 32.98936,-15.84768 1.23373,-1.490862 1.26138,-1.564785 0.37184,-0.981031 -9.7578,6.406511 -20.39084,11.082741 -28.44583,12.513031 -2.41693,0.42924 -4.21127,0.51842 -7.85096,0.39251 -4.99831,-0.17312 -7.98205,-0.77309 -11.43582,-2.30211 -1.91066,-0.84463 -2.15378,-1.28244 -2.01363,-3.61841 l 0.0806,-1.35685 -26.27441,-0.16167 c -14.4515,-0.0887 -29.65715,-0.16121 -33.79119,-0.16025 -9.56092,0.001 -18.85917,0.61666 -26.76924,1.77129 -5.876892,-4.49261 -0.28745,-6.0946 7.52679,-6.894879 1.91448,-0.196016 9.91083,-0.337662 18.58459,-0.329077 8.37295,0.0086 23.37076,-0.07869 33.32735,-0.194108 11.59266,-0.133539 21.3209,-0.07917 27.04811,0.151185 4.9187,0.197446 9.00555,0.2976 9.08182,0.221769 0.31892,-0.319062 -3.42707,-2.119923 -5.66809,-2.724185 -4.41149,-1.1904 -6.4337,-1.317261 -25.81534,-1.614861 -10.57393,-0.162154 -27.73267,-0.465 -38.13022,-0.671508 -28.72375,-0.570877 -31.34375,-0.562292 -33.80501,0.114461 -4.349035,1.19517 -8.15319,3.026077 -11.37528,5.476033 -12.022178,2.4409 -4.155014,-5.812263 -1.179384,-7.879248 2.214324,-1.538077 6.128598,-2.802877 9.953252,-3.214938 4.555928,-0.491231 42.007302,-0.473585 71.011842,0.03386 24.6064,0.430662 23.93185,0.373431 30.95237,2.598277 2.17381,0.688677 4.01391,1.191831 4.08828,1.117431 0.0744,-0.0744 -0.25838,-0.651 -0.7389,-1.281492 -1.13029,-1.482754 -3.6416,-3.131954 -6.26828,-4.1168 -4.38622,-1.643954 -5.8726,-1.745539 -30.9171,-2.116108 C 139.3022,85.108349 129.14301,84.868933 102.12636,84.03241 L 89.469618,83.640385 87.5909,82.702754 c -3.309329,-1.651108 -5.954599,-4.562723 -19.004566,-20.9188 -6.930426,-8.6862 -12.600904,-15.870569 -12.600904,-15.965 0,-0.322877 7.207872,0.265169 7.665038,0.625246 0.25075,0.197446 3.617284,4.590385 7.481504,9.762615 8.322899,11.138539 10.807517,14.154124 14.635508,17.758708 3.790806,3.570723 5.12083,4.449692 7.489131,4.948554 4.562125,0.960046 16.968059,1.184677 44.704059,0.808384 32.15512,-0.435907 42.93308,-0.204123 47.95666,1.032062 4.01057,0.986754 8.93595,2.697954 12.01455,4.173554 1.29904,0.623338 2.41836,1.076892 2.487,1.008215 0.2989,-0.299031 -0.95628,-2.087492 -2.4379,-3.473907 -4.64841,-4.350493 -11.57168,-7.06037 -20.23495,-7.921693 -3.47094,-0.344815 -23.38602,-0.503631 -36.36829,-0.290446 -4.053,0.06725 -12.12753,0.118277 -17.94293,0.113985 -9.49895,-0.0067 -10.9758,-0.07965 -14.52158,-0.718246 C 104.21572,72.8004 98.963796,71.114 95.873755,69.4586 94.020302,68.4666 93.512605,68.013523 92.927204,66.828369 91.241077,63.417892 91.06374,54.133154 92.542975,46.7232 l 0.336081,-1.683539 z" />
    </g>
    <g
       transform="translate(18.186667,53.733333)"
       id="Speaker">
      <path
         inkscape:connector-curvature="0"
         id="path836"
         d="m 4.0901138,9.3962484 c 0,1.0277516 -0.8334896,1.8598776 -1.8612691,1.8598776 -1.0282569,0 -1.86079174,-0.832126 -1.86079174,-1.8598776 0,-1.0272748 0.83253484,-1.8603551 1.86079174,-1.8603551 1.0277795,0 1.8612691,0.8330803 1.8612691,1.8603551 z" />
      <path
         inkscape:connector-curvature="0"
         id="path838"
         d="m 4.0901138,16.834329 c 0,1.027752 -0.8334896,1.860832 -1.8612691,1.860832 -1.0282569,0 -1.86079174,-0.83308 -1.86079174,-1.860832 0,-1.026798 0.83253484,-1.859878 1.86079174,-1.859878 1.0277795,0 1.8612691,0.83308 1.8612691,1.859878 z" />
      <path
         inkscape:connector-curvature="0"
         id="path840"
         d="m 4.0901138,24.274795 c 0,1.027275 -0.8334896,1.860355 -1.8612691,1.860355 -1.0282569,0 -1.86079174,-0.83308 -1.86079174,-1.860355 0,-1.026798 0.83253484,-1.859878 1.86079174,-1.859878 1.0277795,0 1.8612691,0.83308 1.8612691,1.859878 z" />
      <path
         inkscape:connector-curvature="0"
         id="path842"
         d="m 4.0901138,31.715261 c 0,1.027275 -0.8334896,1.860355 -1.8612691,1.860355 -1.0282569,0 -1.86079174,-0.83308 -1.86079174,-1.860355 0,-1.027752 0.83253484,-1.859878 1.86079174,-1.859878 1.0277795,0 1.8612691,0.832126 1.8612691,1.859878 z" />
      <path
         inkscape:connector-curvature="0"
         id="path844"
         d="m 4.0901138,39.153818 c 0,1.027752 -0.8334896,1.859878 -1.8612691,1.859878 -1.0282569,0 -1.86079174,-0.832126 -1.86079174,-1.859878 0,-1.027275 0.83253484,-1.860355 1.86079174,-1.860355 1.0277795,0 1.8612691,0.83308 1.8612691,1.860355 z" />
      <path
         inkscape:connector-curvature="0"
         id="path846"
         d="m 4.0901138,46.594284 c 0,1.026798 -0.8334896,1.859878 -1.8612691,1.859878 -1.0282569,0 -1.86079174,-0.83308 -1.86079174,-1.859878 0,-1.027274 0.83253484,-1.860355 1.86079174,-1.860355 1.0277795,0 1.8612691,0.833081 1.8612691,1.860355 z" />
      <path
         inkscape:connector-curvature="0"
         id="path848"
         d="m 4.0901138,54.03475 c 0,1.026798 -0.8334896,1.859878 -1.8612691,1.859878 -1.0282569,0 -1.86079174,-0.83308 -1.86079174,-1.859878 0,-1.027751 0.83253484,-1.860355 1.86079174,-1.860355 1.0277795,0 1.8612691,0.832604 1.8612691,1.860355 z" />
      <path
         inkscape:connector-curvature="0"
         id="path850"
         d="m 4.0901138,61.475217 c 0,1.026797 -0.8334896,1.859877 -1.8612691,1.859877 -1.0282569,0 -1.86079174,-0.83308 -1.86079174,-1.859877 0,-1.027752 0.83253484,-1.860356 1.86079174,-1.860356 1.0277795,0 1.8612691,0.832604 1.8612691,1.860356 z" />
      <path
         inkscape:connector-curvature="0"
         id="path852"
         d="m 11.533281,1.9557824 c 0,1.0277519 -0.832535,1.8598779 -1.860792,1.8598779 -1.0277795,0 -1.8612691,-0.832126 -1.8612691,-1.8598779 0,-1.02727484 0.8334896,-1.86035511 1.8612691,-1.86035511 1.028257,0 1.860792,0.83308027 1.860792,1.86035511 z" />
      <path
         inkscape:connector-curvature="0"
         id="path854"
         d="m 11.533281,9.3962484 c 0,1.0277516 -0.832535,1.8598776 -1.860792,1.8598776 -1.0277795,0 -1.8612691,-0.832126 -1.8612691,-1.8598776 0,-1.0272748 0.8334896,-1.8603551 1.8612691,-1.8603551 1.028257,0 1.860792,0.8330803 1.860792,1.8603551 z" />
      <path
         inkscape:connector-curvature="0"
         id="path856"
         d="m 11.533281,16.834329 c 0,1.027752 -0.832535,1.860832 -1.860792,1.860832 -1.0277795,0 -1.8612691,-0.83308 -1.8612691,-1.860832 0,-1.026798 0.8334896,-1.859878 1.8612691,-1.859878 1.028257,0 1.860792,0.83308 1.860792,1.859878 z" />
      <path
         inkscape:connector-curvature="0"
         id="path858"
         d="m 11.533281,24.274795 c 0,1.027275 -0.832535,1.860355 -1.860792,1.860355 -1.0277795,0 -1.8612691,-0.83308 -1.8612691,-1.860355 0,-1.026798 0.8334896,-1.859878 1.8612691,-1.859878 1.028257,0 1.860792,0.83308 1.860792,1.859878 z" />
      <path
         inkscape:connector-curvature="0"
         id="path860"
         d="m 11.533281,31.715261 c 0,1.027275 -0.832535,1.860355 -1.860792,1.860355 -1.0277795,0 -1.8612691,-0.83308 -1.8612691,-1.860355 0,-1.027752 0.8334896,-1.859878 1.8612691,-1.859878 1.028257,0 1.860792,0.832126 1.860792,1.859878 z" />
      <path
         inkscape:connector-curvature="0"
         id="path862"
         d="m 11.533281,39.153818 c 0,1.027752 -0.832535,1.859878 -1.860792,1.859878 -1.0277795,0 -1.8612691,-0.832126 -1.8612691,-1.859878 0,-1.027275 0.8334896,-1.860355 1.8612691,-1.860355 1.028257,0 1.860792,0.83308 1.860792,1.860355 z" />
      <path
         inkscape:connector-curvature="0"
         id="path864"
         d="m 11.533281,46.594284 c 0,1.026798 -0.832535,1.859878 -1.860792,1.859878 -1.0277795,0 -1.8612691,-0.83308 -1.8612691,-1.859878 0,-1.027274 0.8334896,-1.860355 1.8612691,-1.860355 1.028257,0 1.860792,0.833081 1.860792,1.860355 z" />
      <path
         inkscape:connector-curvature="0"
         id="path866"
         d="m 11.533281,54.03475 c 0,1.026798 -0.832535,1.859878 -1.860792,1.859878 -1.0277795,0 -1.8612691,-0.83308 -1.8612691,-1.859878 0,-1.027751 0.8334896,-1.860355 1.8612691,-1.860355 1.028257,0 1.860792,0.832604 1.860792,1.860355 z" />
      <path
         inkscape:connector-curvature="0"
         id="path868"
         d="m 11.533281,61.475217 c 0,1.026797 -0.832535,1.859877 -1.860792,1.859877 -1.0277795,0 -1.8612691,-0.83308 -1.8612691,-1.859877 0,-1.027752 0.8334896,-1.860356 1.8612691,-1.860356 1.028257,0 1.860792,0.832604 1.860792,1.860356 z" />
      <path
         inkscape:connector-curvature="0"
         id="path870"
         d="m 11.533281,68.913297 c 0,1.027275 -0.832535,1.860355 -1.860792,1.860355 -1.0277795,0 -1.8612691,-0.83308 -1.8612691,-1.860355 0,-1.027752 0.8334896,-1.859878 1.8612691,-1.859878 1.028257,0 1.860792,0.832126 1.860792,1.859878 z" />
      <path
         inkscape:connector-curvature="0"
         id="path872"
         d="m 18.977402,1.9557824 c 0,1.0277519 -0.832534,1.8598779 -1.860791,1.8598779 -1.02778,0 -1.861269,-0.832126 -1.861269,-1.8598779 0,-1.02727484 0.833489,-1.86035511 1.861269,-1.86035511 1.028257,0 1.860791,0.83308027 1.860791,1.86035511 z" />
      <path
         inkscape:connector-curvature="0"
         id="path874"
         d="m 18.977402,9.3962484 c 0,1.0277516 -0.832534,1.8598776 -1.860791,1.8598776 -1.02778,0 -1.861269,-0.832126 -1.861269,-1.8598776 0,-1.0272748 0.833489,-1.8603551 1.861269,-1.8603551 1.028257,0 1.860791,0.8330803 1.860791,1.8603551 z" />
      <path
         inkscape:connector-curvature="0"
         id="path876"
         d="m 18.977402,16.834329 c 0,1.027752 -0.832534,1.860832 -1.860791,1.860832 -1.02778,0 -1.861269,-0.83308 -1.861269,-1.860832 0,-1.026798 0.833489,-1.859878 1.861269,-1.859878 1.028257,0 1.860791,0.83308 1.860791,1.859878 z" />
      <path
         inkscape:connector-curvature="0"
         id="path878"
         d="m 18.977402,24.274795 c 0,1.027275 -0.832534,1.860355 -1.860791,1.860355 -1.02778,0 -1.861269,-0.83308 -1.861269,-1.860355 0,-1.026798 0.833489,-1.859878 1.861269,-1.859878 1.028257,0 1.860791,0.83308 1.860791,1.859878 z" />
      <path
         inkscape:connector-curvature="0"
         id="path880"
         d="m 18.977402,31.715261 c 0,1.027275 -0.832534,1.860355 -1.860791,1.860355 -1.02778,0 -1.861269,-0.83308 -1.861269,-1.860355 0,-1.027752 0.833489,-1.859878 1.861269,-1.859878 1.028257,0 1.860791,0.832126 1.860791,1.859878 z" />
      <path
         inkscape:connector-curvature="0"
         id="path882"
         d="m 18.977402,39.153818 c 0,1.027752 -0.832534,1.859878 -1.860791,1.859878 -1.02778,0 -1.861269,-0.832126 -1.861269,-1.859878 0,-1.027275 0.833489,-1.860355 1.861269,-1.860355 1.028257,0 1.860791,0.83308 1.860791,1.860355 z" />
      <path
         inkscape:connector-curvature="0"
         id="path884"
         d="m 18.977402,46.594284 c 0,1.026798 -0.832534,1.859878 -1.860791,1.859878 -1.02778,0 -1.861269,-0.83308 -1.861269,-1.859878 0,-1.027274 0.833489,-1.860355 1.861269,-1.860355 1.028257,0 1.860791,0.833081 1.860791,1.860355 z" />
      <path
         inkscape:connector-curvature="0"
         id="path886"
         d="m 18.977402,54.03475 c 0,1.026798 -0.832534,1.859878 -1.860791,1.859878 -1.02778,0 -1.861269,-0.83308 -1.861269,-1.859878 0,-1.027751 0.833489,-1.860355 1.861269,-1.860355 1.028257,0 1.860791,0.832604 1.860791,1.860355 z" />
      <path
         inkscape:connector-curvature="0"
         id="path888"
         d="m 18.977402,61.475217 c 0,1.026797 -0.832534,1.859877 -1.860791,1.859877 -1.02778,0 -1.861269,-0.83308 -1.861269,-1.859877 0,-1.027752 0.833489,-1.860356 1.861269,-1.860356 1.028257,0 1.860791,0.832604 1.860791,1.860356 z" />
      <path
         inkscape:connector-curvature="0"
         id="path890"
         d="m 18.977402,68.913297 c 0,1.027275 -0.832534,1.860355 -1.860791,1.860355 -1.02778,0 -1.861269,-0.83308 -1.861269,-1.860355 0,-1.027752 0.833489,-1.859878 1.861269,-1.859878 1.028257,0 1.860791,0.832126 1.860791,1.859878 z" />
      <path
         inkscape:connector-curvature="0"
         id="path892"
         d="m 26.419615,1.9557824 c 0,1.0277519 -0.833013,1.8598779 -1.861269,1.8598779 -1.027303,0 -1.860792,-0.832126 -1.860792,-1.8598779 0,-1.02727484 0.833489,-1.86035511 1.860792,-1.86035511 1.028256,0 1.861269,0.83308027 1.861269,1.86035511 z" />
      <path
         inkscape:connector-curvature="0"
         id="path894"
         d="m 26.419615,9.3962484 c 0,1.0277516 -0.833013,1.8598776 -1.861269,1.8598776 -1.027303,0 -1.860792,-0.832126 -1.860792,-1.8598776 0,-1.0272748 0.833489,-1.8603551 1.860792,-1.8603551 1.028256,0 1.861269,0.8330803 1.861269,1.8603551 z" />
      <path
         inkscape:connector-curvature="0"
         id="path896"
         d="m 26.419615,16.834329 c 0,1.027752 -0.833013,1.860832 -1.861269,1.860832 -1.027303,0 -1.860792,-0.83308 -1.860792,-1.860832 0,-1.026798 0.833489,-1.859878 1.860792,-1.859878 1.028256,0 1.861269,0.83308 1.861269,1.859878 z" />
      <path
         inkscape:connector-curvature="0"
         id="path898"
         d="m 26.419615,24.274795 c 0,1.027275 -0.833013,1.860355 -1.861269,1.860355 -1.027303,0 -1.860792,-0.83308 -1.860792,-1.860355 0,-1.026798 0.833489,-1.859878 1.860792,-1.859878 1.028256,0 1.861269,0.83308 1.861269,1.859878 z" />
      <path
         inkscape:connector-curvature="0"
         id="path900"
         d="m 26.419615,31.715261 c 0,1.027275 -0.833013,1.860355 -1.861269,1.860355 -1.027303,0 -1.860792,-0.83308 -1.860792,-1.860355 0,-1.027752 0.833489,-1.859878 1.860792,-1.859878 1.028256,0 1.861269,0.832126 1.861269,1.859878 z" />
      <path
         inkscape:connector-curvature="0"
         id="path902"
         d="m 26.419615,39.153818 c 0,1.027752 -0.833013,1.859878 -1.861269,1.859878 -1.027303,0 -1.860792,-0.832126 -1.860792,-1.859878 0,-1.027275 0.833489,-1.860355 1.860792,-1.860355 1.028256,0 1.861269,0.83308 1.861269,1.860355 z" />
      <path
         inkscape:connector-curvature="0"
         id="path904"
         d="m 26.419615,46.594284 c 0,1.026798 -0.833013,1.859878 -1.861269,1.859878 -1.027303,0 -1.860792,-0.83308 -1.860792,-1.859878 0,-1.027274 0.833489,-1.860355 1.860792,-1.860355 1.028256,0 1.861269,0.833081 1.861269,1.860355 z" />
      <path
         inkscape:connector-curvature="0"
         id="path906"
         d="m 26.419615,54.03475 c 0,1.026798 -0.833013,1.859878 -1.861269,1.859878 -1.027303,0 -1.860792,-0.83308 -1.860792,-1.859878 0,-1.027751 0.833489,-1.860355 1.860792,-1.860355 1.028256,0 1.861269,0.832604 1.861269,1.860355 z" />
      <path
         inkscape:connector-curvature="0"
         id="path908"
         d="m 26.419615,61.475217 c 0,1.026797 -0.833013,1.859877 -1.861269,1.859877 -1.027303,0 -1.860792,-0.83308 -1.860792,-1.859877 0,-1.027752 0.833489,-1.860356 1.860792,-1.860356 1.028256,0 1.861269,0.832604 1.861269,1.860356 z" />
      <path
         inkscape:connector-curvature="0"
         id="path910"
         d="m 26.419615,68.913297 c 0,1.027275 -0.833013,1.860355 -1.861269,1.860355 -1.027303,0 -1.860792,-0.83308 -1.860792,-1.860355 0,-1.027752 0.833489,-1.859878 1.860792,-1.859878 1.028256,0 1.861269,0.832126 1.861269,1.859878 z" />
      <path
         inkscape:connector-curvature="0"
         id="path912"
         d="m 33.863736,9.3962484 c 0,1.0277516 -0.833489,1.8598776 -1.861269,1.8598776 -1.027302,0 -1.860791,-0.832126 -1.860791,-1.8598776 0,-1.0272748 0.833489,-1.8603551 1.860791,-1.8603551 1.02778,0 1.861269,0.8330803 1.861269,1.8603551 z" />
      <path
         inkscape:connector-curvature="0"
         id="path914"
         d="m 33.863736,16.834329 c 0,1.027752 -0.833489,1.860832 -1.861269,1.860832 -1.027302,0 -1.860791,-0.83308 -1.860791,-1.860832 0,-1.026798 0.833489,-1.859878 1.860791,-1.859878 1.02778,0 1.861269,0.83308 1.861269,1.859878 z" />
      <path
         inkscape:connector-curvature="0"
         id="path916"
         d="m 33.863736,24.274795 c 0,1.027275 -0.833489,1.860355 -1.861269,1.860355 -1.027302,0 -1.860791,-0.83308 -1.860791,-1.860355 0,-1.026798 0.833489,-1.859878 1.860791,-1.859878 1.02778,0 1.861269,0.83308 1.861269,1.859878 z" />
      <path
         inkscape:connector-curvature="0"
         id="path918"
         d="m 33.863736,31.715261 c 0,1.027275 -0.833489,1.860355 -1.861269,1.860355 -1.027302,0 -1.860791,-0.83308 -1.860791,-1.860355 0,-1.027752 0.833489,-1.859878 1.860791,-1.859878 1.02778,0 1.861269,0.832126 1.861269,1.859878 z" />
      <path
         inkscape:connector-curvature="0"
         id="path920"
         d="m 33.863736,39.153818 c 0,1.027752 -0.833489,1.859878 -1.861269,1.859878 -1.027302,0 -1.860791,-0.832126 -1.860791,-1.859878 0,-1.027275 0.833489,-1.860355 1.860791,-1.860355 1.02778,0 1.861269,0.83308 1.861269,1.860355 z" />
      <path
         inkscape:connector-curvature="0"
         id="path922"
         d="m 33.863736,46.594284 c 0,1.026798 -0.833489,1.859878 -1.861269,1.859878 -1.027302,0 -1.860791,-0.83308 -1.860791,-1.859878 0,-1.027274 0.833489,-1.860355 1.860791,-1.860355 1.02778,0 1.861269,0.833081 1.861269,1.860355 z" />
      <path
         inkscape:connector-curvature="0"
         id="path924"
         d="m 33.863736,54.03475 c 0,1.026798 -0.833489,1.859878 -1.861269,1.859878 -1.027302,0 -1.860791,-0.83308 -1.860791,-1.859878 0,-1.027751 0.833489,-1.860355 1.860791,-1.860355 1.02778,0 1.861269,0.832604 1.861269,1.860355 z" />
      <path
         inkscape:connector-curvature="0"
         id="path926"
         d="m 33.863736,61.475217 c 0,1.026797 -0.833489,1.859877 -1.861269,1.859877 -1.027302,0 -1.860791,-0.83308 -1.860791,-1.859877 0,-1.027752 0.833489,-1.860356 1.860791,-1.860356 1.02778,0 1.861269,0.832604 1.861269,1.860356 z" />
    </g>
    <path
       style="fill-rule:nonzero"
       inkscape:connector-curvature="0"
       id="Dots"
       d="m 77.376329,120.69309 c 0,3.65124 -1.904633,6.61358 -6.449364,6.61358 C 65.536903,126.00363 64.48,123.62048 64.48,120.69309 c 0,-2.9274 4.01556,-6.61309 6.446965,-6.61309 2.431885,0 6.447924,2.95987 6.447924,6.61309 z m 31.705651,0 c -0.42218,5.096 -2.88573,6.61358 -6.44792,6.61358 -3.561233,0 -6.446967,-3.68619 -6.446967,-6.61358 0,-2.9274 2.887653,-6.61309 6.449367,-6.61309 3.56219,0 6.86963,1.51709 6.44696,6.61309 z" />
  </g>
  <path
     style="fill:#000000;fill-rule:evenodd;stroke:none;stroke-width:1.93142855"
     d="m 756.57033,249.59928 c 28.44415,0 46.88736,-13.55476 58.4431,-37.11046 l -27.5557,-15.99803 c -4.66633,12.66631 -14.2211,23.10954 -30.8874,23.10954 -19.77783,0 -32.88836,-13.33265 -32.88836,-37.77681 v -24.88838 c 0,-24.44416 13.11053,-37.77681 32.88836,-37.77681 16.6663,0 24.88839,8.66632 28.88838,21.55474 L 814.5692,125.6035 c -11.33363,-24.88838 -29.55472,-36.44412 -57.99887,-36.44412 -41.7768,0 -68.66421,28.88838 -68.66421,81.33052 0,52.44408 26.88741,79.10938 68.66421,79.10938 z"
     id="path931"
     inkscape:connector-curvature="0" />
  <path
     style="fill:#000000;fill-rule:evenodd;stroke:none;stroke-width:1.93142855"
     d="m 836.79028,246.93391 h 32.88837 v -75.55362 c 0,-11.55574 10.44323,-17.11052 21.11051,-17.11052 11.99996,0 16.22207,7.3317 16.22207,22.22108 v 70.44306 h 32.88643 v -73.11036 c 0,-29.33261 -12.66631,-46.22102 -36.44219,-46.22102 -18.44514,0 -28.22204,10.22305 -32.44414,22.44513 h -1.33268 V 82.49402 h -32.88837 z"
     id="path933"
     inkscape:connector-curvature="0" />
  <path
     d="m 1073.6723,246.93391 v -25.55473 h -10.8875 v -51.11139 c 0,-27.55376 -16.8884,-42.66526 -49.7768,-42.66526 -24.44414,0 -37.77679,8.44421 -47.10945,22.22302 l 19.55378,17.33264 c 5.11056,-7.11152 11.99997,-13.77881 25.11047,-13.77881 13.7769,0 19.3336,7.11152 19.3336,18.44514 v 7.33363 h -18.4451 c -30.88741,0 -49.99697,11.77592 -49.99697,36.4422 0,20.22205 12.88843,33.99893 36.22008,33.99893 17.77689,0 30.66529,-7.99997 34.22109,-23.10954 h 1.3346 c 1.999,12.44419 10.4432,20.44417 22.2211,20.44417 z m -63.7758,-20.22206 c -9.7769,0 -15.33362,-3.99998 -15.33362,-12.44419 v -3.33364 c 0,-8.44421 6.66732,-13.11054 19.33362,-13.11054 h 15.9999 v 13.77688 c 0,10.66728 -9.1105,15.11149 -19.9999,15.11149 z"
     id="Shape"
     inkscape:connector-curvature="0"
     style="fill:#000000;fill-rule:nonzero;stroke:none;stroke-width:1.93142855" />
  <path
     d="m 1143.0048,249.59928 c 34.221,0 54.6652,-23.55377 54.6652,-61.10846 0,-37.5547 -20.4442,-60.88829 -54.6652,-60.88829 -34.223,0 -54.6653,23.33359 -54.6653,60.88829 0,37.55469 20.4423,61.10846 54.6653,61.10846 z m 0,-25.99896 c -12.8885,0 -20.4442,-8.4442 -20.4442,-23.10954 v -23.77782 c 0,-14.66533 7.5557,-23.10954 20.4442,-23.10954 12.8884,0 20.4422,8.44421 20.4422,23.10954 v 23.77782 c 0,14.66534 -7.5538,23.10954 -20.4422,23.10954 z"
     id="path936"
     inkscape:connector-curvature="0"
     style="fill:#000000;fill-rule:nonzero;stroke:none;stroke-width:1.93142855" />
  <path
     style="fill:#000000;fill-rule:evenodd;stroke:none;stroke-width:1.93142855"
     d="m 1260.5554,249.59928 c 30.0008,0 49.9988,-16.44418 49.9988,-38.88738 0,-20.22206 -13.1105,-31.77779 -38.4431,-35.10951 l -13.1105,-1.77884 c -9.5548,-1.33269 -12.2221,-4.66633 -12.2221,-10.88746 0,-5.77884 4.4442,-9.77883 15.5557,-9.77883 9.7769,0 19.5557,4.66633 26.8874,11.99997 l 18.8894,-19.33167 c -11.7779,-11.55574 -23.1115,-18.22303 -47.5556,-18.22303 -27.7759,0 -45.3307,15.55573 -45.3307,37.99893 0,21.11051 12.8884,32.66625 39.3316,35.99989 l 12.6663,1.5548 c 8.2221,1.11251 11.7779,3.99999 11.7779,9.77883 0,6.88747 -4.4442,11.10957 -17.3326,11.10957 -12.6664,0 -22.6673,-5.7769 -30.8894,-14.88745 l -19.3316,19.55378 c 11.9999,13.33265 26.6653,20.8884 49.1085,20.8884 z"
     id="path938"
     inkscape:connector-curvature="0" />
  <path
     style="fill:#000000;fill-rule:evenodd;stroke:none;stroke-width:1.93142855"
     d="m 1365.8858,246.93391 v -68.22192 c 0,-13.55476 9.3346,-17.77686 28.4442,-17.77686 h 8.222 v -30.66529 h -5.7769 c -18.223,0 -27.1114,12.44419 -29.7768,25.33261 h -1.1125 v -25.33261 h -32.8864 v 116.66407 z"
     id="path940"
     inkscape:connector-curvature="0" />
  <path
     d="m 1524.1046,246.93391 v -25.55473 h -10.8894 v -51.11139 c 0,-27.55376 -16.8884,-42.66526 -49.7749,-42.66526 -24.4441,0 -37.7768,8.44421 -47.1114,22.22302 l 19.5557,17.33264 c 5.1106,-7.11152 12,-13.77881 25.1105,-13.77881 13.7769,0 19.3336,7.11152 19.3336,18.44514 v 7.33363 h -18.4451 c -30.8874,0 -49.9989,11.77592 -49.9989,36.4422 0,20.22205 12.8884,33.99893 36.222,33.99893 17.7769,0 30.6653,-7.99997 34.2211,-23.10954 h 1.3327 c 2.0009,12.44419 10.4451,20.44417 22.223,20.44417 z m -63.7758,-20.22206 c -9.7769,0 -15.3336,-3.99998 -15.3336,-12.44419 v -3.33364 c 0,-8.44421 6.6673,-13.11054 19.3336,-13.11054 h 15.9999 v 13.77688 c 0,10.66728 -9.1124,15.11149 -19.9999,15.11149 z"
     id="path942"
     inkscape:connector-curvature="0"
     style="fill:#000000;fill-rule:nonzero;stroke:none;stroke-width:1.93142855" />
  <path
     d="m 1617.6572,246.93391 h 32.8883 V 82.49402 h -32.8883 v 67.3296 h -1.1106 c -3.3336,-12.88843 -16.2221,-22.22109 -31.3316,-22.22109 -29.5548,0 -44.8884,21.33263 -44.8884,60.88829 0,39.55372 15.3336,61.10846 44.8884,61.10846 15.1095,0 27.998,-9.55477 31.3316,-22.22108 h 1.1106 z m -21.5548,-23.99993 c -12.4442,0 -21.5547,-9.55478 -21.5547,-24.22204 v -20.22206 c 0,-14.66534 9.1105,-24.22011 21.5547,-24.22011 12.4442,0 21.5548,6.44324 21.5548,17.11052 v 34.44317 c 0,10.66534 -9.1106,17.11052 -21.5548,17.11052 z"
     id="path944"
     inkscape:connector-curvature="0"
     style="fill:#000000;fill-rule:nonzero;stroke:none;stroke-width:1.93142855" />
  <path
     d="m 1697.655,117.82564 c 13.3327,0 19.1115,-6.8894 19.1115,-16.22207 v -4.88844 c 0,-9.33266 -5.7788,-16.22207 -19.1115,-16.22207 -13.3326,0 -19.1095,6.88941 -19.1095,16.22207 v 4.88844 c 0,9.33267 5.7769,16.22207 19.1095,16.22207 z m -16.4442,129.10827 h 32.8884 V 130.26984 h -32.8884 z"
     id="path946"
     inkscape:connector-curvature="0"
     style="fill:#000000;fill-rule:nonzero;stroke:none;stroke-width:1.93142855" />
  <path
     d="m 1792.098,249.59928 c 34.221,0 54.6652,-23.55377 54.6652,-61.10846 0,-37.5547 -20.4442,-60.88829 -54.6652,-60.88829 -34.2211,0 -54.6652,23.33359 -54.6652,60.88829 0,37.55469 20.4441,61.10846 54.6652,61.10846 z m 0,-25.99896 c -12.8884,0 -20.4442,-8.4442 -20.4442,-23.10954 v -23.77782 c 0,-14.66533 7.5558,-23.10954 20.4442,-23.10954 12.8884,0 20.4422,8.44421 20.4422,23.10954 v 23.77782 c 0,14.66534 -7.5538,23.10954 -20.4422,23.10954 z"
     id="path948"
     inkscape:connector-curvature="0"
     style="fill:#000000;fill-rule:nonzero;stroke:none;stroke-width:1.93142855" />
  <text
     xml:space="preserve"
     style="font-style:normal;font-variant:normal;font-weight:normal;font-stretch:normal;font-size:42.66666794px;line-height:125%;font-family:Umpush;-inkscape-font-specification:Umpush;letter-spacing:0px;word-spacing:0px;fill:#000000;fill-opacity:1;stroke:none;stroke-width:1px;stroke-linecap:butt;stroke-linejoin:miter;stroke-opacity:1"
     x="688.57141"
     y="385.71429"
     id="text1118"><tspan
       sodipodi:role="line"
       id="tspan1116"
       x="688.57141"
       y="425.17264" /></text>
  <flowRoot
     xml:space="preserve"
     id="flowRoot1124"
     style="fill:black;stroke:none;stroke-opacity:1;stroke-width:1px;stroke-linejoin:miter;stroke-linecap:butt;fill-opacity:1;font-family:Umpush;font-style:normal;font-weight:normal;font-size:42.66666667px;line-height:125%;letter-spacing:0px;word-spacing:0px;-inkscape-font-specification:Umpush;font-stretch:normal;font-variant:normal"><flowRegion
       id="flowRegion1126"><rect
         id="rect1128"
         width="322.85715"
         height="68.571426"
         x="-131.42857"
         y="534.28571" /></flowRegion><flowPara
       id="flowPara1130"></flowPara></flowRoot></svg>
